<svg width="488" height="405" viewBox="0 0 488 405" fill="none" xmlns="http://www.w3.org/2000/svg">
<g filter="url(#filter0_d_304_1381)">
<rect width="480" height="397" rx="32" fill="white"/>
<rect x="0.5" y="0.5" width="479" height="396" rx="31.5" stroke="black"/>
</g>
<path d="M0.5 32C0.5 14.603 14.603 0.5 32 0.5H448C465.397 0.5 479.5 14.603 479.5 32V49.5H0.5V32Z" fill="#CBC8FF"/>
<path d="M0.5 32C0.5 14.603 14.603 0.5 32 0.5H448C465.397 0.5 479.5 14.603 479.5 32V49.5H0.5V32Z" fill="url(#paint0_linear_304_1381)"/>
<path d="M0.5 32C0.5 14.603 14.603 0.5 32 0.5H448C465.397 0.5 479.5 14.603 479.5 32V49.5H0.5V32Z" stroke="black"/>
<rect x="30.5" y="24.5" width="15" height="15" rx="7.5" fill="#FFA9DD" stroke="black"/>
<rect x="58.5" y="24.5" width="15" height="15" rx="7.5" fill="#FFE994" stroke="black"/>
<rect x="86.5" y="24.5" width="15" height="15" rx="7.5" fill="#7BDBAC" stroke="black"/>
<rect x="312" y="80" width="104" height="64" rx="8" fill="#DEDFFF"/>
<rect x="312" y="180" width="104" height="64" rx="8" fill="#DEDFFF"/>
<rect x="312" y="280" width="104" height="64" rx="8" fill="#DEDFFF"/>
<rect x="188" y="80" width="104" height="64" rx="8" fill="#DEDFFF"/>
<rect x="188" y="180" width="104" height="64" rx="8" fill="#DEDFFF"/>
<rect x="188" y="280" width="104" height="64" rx="8" fill="#DEDFFF"/>
<rect x="64" y="80" width="104" height="64" rx="8" fill="#DEDFFF"/>
<rect x="64" y="180" width="104" height="64" rx="8" fill="#DEDFFF"/>
<rect x="64" y="280" width="104" height="64" rx="8" fill="#DEDFFF"/>
<defs>
<filter id="filter0_d_304_1381" x="0" y="0" width="488" height="405" filterUnits="userSpaceOnUse" color-interpolation-filters="sRGB">
<feFlood flood-opacity="0" result="BackgroundImageFix"/>
<feColorMatrix in="SourceAlpha" type="matrix" values="0 0 0 0 0 0 0 0 0 0 0 0 0 0 0 0 0 0 127 0" result="hardAlpha"/>
<feOffset dx="8" dy="8"/>
<feComposite in2="hardAlpha" operator="out"/>
<feColorMatrix type="matrix" values="0 0 0 0 0.796078 0 0 0 0 0.784314 0 0 0 0 1 0 0 0 1 0"/>
<feBlend mode="normal" in2="BackgroundImageFix" result="effect1_dropShadow_304_1381"/>
<feBlend mode="normal" in="SourceGraphic" in2="effect1_dropShadow_304_1381" result="shape"/>
</filter>
<linearGradient id="paint0_linear_304_1381" x1="426" y1="-51.9999" x2="155.5" y2="89" gradientUnits="userSpaceOnUse">
<stop stop-color="#CBC8FF"/>
<stop offset="1" stop-color="#A8A5DE"/>
</linearGradient>
</defs>
</svg>
